<svg xmlns="http://www.w3.org/2000/svg" viewBox="0 0 256 256">
  <defs>
    <filter id="glow" x="-50%" y="-50%" width="200%" height="200%">
      <feGaussianBlur stdDeviation="6" result="blur"></feGaussianBlur>
      <feMerge>
        <feMergeNode in="blur"></feMergeNode>
        <feMergeNode in="SourceGraphic"></feMergeNode>
      </feMerge>
    </filter>
    <linearGradient id="pink" x1="0" y1="0" x2="1" y2="1">
      <stop offset="0" stop-color="#ff4fd8"></stop>
      <stop offset="1" stop-color="#ff1fbf"></stop>
    </linearGradient>
  </defs>

  <!-- subtle glow behind -->
  <g filter="url(#glow)" opacity="0.9">
    <path fill="url(#pink)" d="M58 64c0-8.8 7.2-16 16-16h108c8.8 0 16 7.2 16 16s-7.2 16-16 16h-38v116c0 8.8-7.2 16-16 16s-16-7.2-16-16V80H74c-8.8 0-16-7.2-16-16z"></path>
  </g>

  <!-- crisp front -->
  <path fill="url(#pink)" d="M58 64c0-8.8 7.2-16 16-16h108c8.8 0 16 7.2 16 16s-7.2 16-16 16h-38v116c0 8.8-7.2 16-16 16s-16-7.2-16-16V80H74c-8.8 0-16-7.2-16-16z"></path>
</svg>
